<svg id="svg" version="1.1" xmlns="http://www.w3.org/2000/svg" xmlns:xlink="http://www.w3.org/1999/xlink" width="400" height="400" viewBox="0, 0, 400,400"><g id="svgg"><path id="path0" d="M329.222 48.033 C 329.156 48.210,306.691 61.290,279.300 77.101 L 229.499 105.849 226.371 102.829 C 224.650 101.169,235.679 112.292,250.879 127.548 L 278.516 155.286 278.516 157.032 L 278.516 158.777 263.959 173.334 L 249.402 187.891 247.666 187.891 L 245.930 187.891 234.772 176.758 C 228.636 170.635,223.487 165.625,223.331 165.625 C 223.175 165.625,223.047 189.193,223.047 217.999 L 223.047 270.373 221.905 271.514 L 220.763 272.656 200.195 272.656 L 179.627 272.656 178.486 271.514 L 177.344 270.373 177.344 217.999 C 177.344 189.193,177.211 165.625,177.048 165.625 C 176.886 165.625,171.745 170.635,165.625 176.758 L 154.497 187.891 152.764 187.891 L 151.031 187.891 139.413 176.314 C 132.400 169.327,127.589 164.819,127.276 164.943 C 126.991 165.056,99.160 181.097,65.430 200.590 C 31.699 220.083,3.890 236.040,3.630 236.050 C 3.371 236.060,3.267 236.241,3.398 236.454 C 3.529 236.666,3.704 237.472,3.787 238.244 C 4.573 245.593,10.604 265.822,15.470 277.425 C 43.788 344.958,105.316 391.097,178.125 399.398 C 185.618 400.252,215.190 400.250,222.656 399.395 C 249.642 396.304,276.307 387.612,299.219 374.439 C 419.476 305.298,435.320 139.713,330.394 48.624 C 329.816 48.123,329.289 47.857,329.222 48.033 M165.625 122.461 L 131.056 157.031 141.895 167.870 L 152.733 178.708 165.722 165.762 C 180.991 150.544,181.226 150.384,184.020 153.358 L 184.961 154.360 185.063 209.602 L 185.164 264.844 200.195 264.844 L 215.226 264.844 215.328 209.794 C 215.442 148.114,215.196 153.203,218.107 152.233 C 220.270 151.512,220.998 152.104,234.476 165.549 L 247.663 178.702 258.499 167.866 L 269.335 157.031 234.764 122.460 L 200.194 87.890 165.625 122.461 M221.680 110.404 C 221.465 110.493,201.865 121.796,178.125 135.520 L 134.961 160.474 133.206 158.751 L 131.451 157.027 165.822 122.654 L 200.194 88.281 211.132 99.261 C 217.148 105.300,221.895 110.314,221.680 110.404 M221.884 278.320 C 223.602 279.955,223.513 284.265,221.729 285.799 L 220.636 286.739 199.933 286.631 L 179.229 286.523 178.286 285.427 C 176.344 283.169,177.288 278.118,179.790 277.382 C 180.533 277.163,189.228 277.038,200.854 277.079 L 220.652 277.148 221.884 278.320 M311.948 316.135 C 313.227 317.622,313.227 319.878,311.948 321.365 L 311.005 322.461 200.195 322.461 L 89.385 322.461 88.443 321.365 C 86.790 319.444,87.415 316.112,89.593 315.230 C 90.060 315.041,139.121 314.924,200.717 314.965 L 311.005 315.039 311.948 316.135 " stroke="none" fill="#07b2cc" fill-rule="evenodd"></path><path id="path1" d="M117.160 55.234 C 65.505 85.076,22.947 109.504,22.587 109.517 C 22.227 109.531,22.008 109.666,22.101 109.816 C 22.194 109.966,22.117 110.148,21.930 110.221 C 21.122 110.531,15.149 124.127,11.898 133.056 C 8.743 141.721,4.124 159.189,3.367 165.316 C 3.268 166.113,3.066 167.150,2.916 167.621 C 2.687 168.342,2.760 168.434,3.373 168.201 C 4.593 167.738,271.064 13.884,271.079 13.634 C 271.099 13.322,259.104 9.322,253.711 7.841 C 241.226 4.413,226.674 1.900,215.465 1.236 L 211.078 0.977 117.160 55.234 " stroke="none" fill="#3573b5" fill-rule="evenodd"></path><path id="path2" d="M198.242 79.259 C 194.870 81.388,121.875 155.283,121.875 156.567 C 121.875 158.746,122.578 159.553,137.005 173.926 L 151.022 187.891 152.760 187.891 L 154.497 187.891 165.625 176.758 C 171.745 170.635,176.886 165.625,177.048 165.625 C 177.211 165.625,177.344 189.193,177.344 217.999 L 177.344 270.373 178.486 271.514 L 179.627 272.656 200.195 272.656 L 220.763 272.656 221.905 271.514 L 223.047 270.373 223.047 217.999 C 223.047 189.193,223.175 165.625,223.331 165.625 C 223.487 165.625,228.636 170.635,234.772 176.758 L 245.930 187.891 247.666 187.891 L 249.402 187.891 263.959 173.334 L 278.516 158.777 278.516 157.030 L 278.516 155.283 240.723 117.459 C 198.743 75.445,201.027 77.500,198.242 79.259 M258.499 167.866 L 247.663 178.702 234.476 165.549 C 220.998 152.104,220.270 151.512,218.107 152.233 C 215.196 153.203,215.442 148.114,215.328 209.794 L 215.226 264.844 200.195 264.844 L 185.164 264.844 185.063 209.602 L 184.961 154.360 184.020 153.358 C 181.226 150.384,180.991 150.544,165.722 165.762 L 152.733 178.708 141.895 167.870 L 131.056 157.031 165.625 122.461 L 200.194 87.890 234.764 122.460 L 269.335 157.031 258.499 167.866 M179.790 277.382 C 177.288 278.118,176.344 283.169,178.286 285.427 L 179.229 286.523 199.933 286.631 L 220.636 286.739 221.729 285.799 C 223.513 284.265,223.602 279.955,221.884 278.320 L 220.652 277.148 200.854 277.079 C 189.228 277.038,180.533 277.163,179.790 277.382 M89.593 315.230 C 87.415 316.112,86.790 319.444,88.443 321.365 L 89.385 322.461 200.195 322.461 L 311.005 322.461 311.948 321.365 C 313.227 319.878,313.227 317.622,311.948 316.135 L 311.005 315.039 200.717 314.965 C 139.121 314.924,90.060 315.041,89.593 315.230 " stroke="none" fill="#f9fbfb" fill-rule="evenodd"></path><path id="path3" d="M138.233 90.501 C 65.105 132.727,4.720 167.543,4.043 167.871 C 2.898 168.425,2.783 168.672,2.369 171.440 C -0.404 190.010,-0.470 209.882,2.178 229.102 C 2.504 231.465,2.875 233.662,3.004 233.984 C 3.132 234.307,3.256 234.876,3.279 235.249 C 3.351 236.426,2.785 236.741,65.823 200.352 L 127.672 164.648 124.774 161.666 C 122.066 158.880,121.875 158.571,121.875 156.976 L 121.875 155.268 160.259 116.892 C 197.761 79.396,198.676 78.516,200.133 78.516 C 201.566 78.516,202.149 79.033,215.497 92.178 L 229.372 105.840 230.642 105.166 C 237.365 101.602,329.265 48.146,329.176 47.852 C 329.004 47.285,321.464 41.280,316.327 37.619 C 303.493 28.471,287.282 19.710,274.170 14.835 L 271.192 13.728 138.233 90.501 M165.822 122.654 L 131.451 157.027 133.206 158.751 L 134.961 160.474 178.125 135.520 C 201.865 121.796,221.465 110.493,221.680 110.404 C 221.895 110.314,217.148 105.300,211.132 99.261 L 200.194 88.281 165.822 122.654 " stroke="none" fill="#248bc1" fill-rule="evenodd"></path><path id="path4" d="M190.820 0.780 C 127.329 3.838,69.224 36.605,34.021 89.204 C 29.782 95.536,23.777 105.852,24.062 106.312 C 24.173 106.493,24.068 106.641,23.828 106.641 C 23.588 106.641,23.500 106.816,23.633 107.031 C 23.766 107.246,23.721 107.422,23.533 107.422 C 23.345 107.422,22.888 108.059,22.516 108.838 L 21.841 110.253 23.128 109.498 C 23.835 109.082,66.250 84.601,117.383 55.095 C 221.546 -5.012,211.903 0.715,208.789 0.800 C 207.500 0.835,204.424 0.773,201.953 0.662 C 199.482 0.551,194.473 0.604,190.820 0.780 " stroke="none" fill="#4462ac" fill-rule="evenodd"></path></g></svg>