<?xml version="1.0" standalone="no"?>
<!DOCTYPE svg PUBLIC "-//W3C//DTD SVG 20010904//EN"
 "http://www.w3.org/TR/2001/REC-SVG-20010904/DTD/svg10.dtd">
<svg version="1.0" xmlns="http://www.w3.org/2000/svg"
 width="128.000000pt" height="128.000000pt" viewBox="0 0 128.000000 128.000000"
 preserveAspectRatio="xMidYMid meet">

<g transform="translate(0.000000,128.000000) scale(0.100000,-0.100000)"
fill="#000000" stroke="none">
<path d="M204 1267 c-2 -7 -3 -56 -2 -108 2 -76 6 -94 18 -94 12 0 16 18 18
88 l3 87 399 0 400 0 0 -289 c0 -285 0 -289 -21 -294 -12 -3 -19 -12 -17 -19
3 -9 32 -14 99 -15 153 -5 139 14 139 -179 0 -154 -1 -166 -17 -159 -10 4 -37
14 -60 22 l-43 15 0 84 c0 76 2 84 19 84 25 0 38 20 20 31 -22 14 -105 11
-118 -4 -13 -16 -5 -27 21 -27 16 0 18 -9 18 -75 0 -45 -4 -75 -10 -75 -6 0
-26 7 -45 14 l-35 15 0 74 c0 78 -4 89 -26 80 -10 -4 -14 -24 -14 -73 0 -64
-1 -68 -20 -63 -25 7 -35 25 -45 78 -14 82 -44 79 -66 -6 -7 -27 -16 -49 -20
-49 -4 0 -12 22 -19 50 -13 53 -29 73 -48 61 -14 -8 -47 -174 -38 -196 11 -29
33 -3 43 48 l9 52 14 -45 c7 -25 20 -52 27 -60 13 -13 16 -13 28 4 8 11 18 34
21 53 10 51 21 48 28 -7 5 -36 12 -50 25 -55 12 -3 26 -24 35 -50 l15 -45
-340 0 c-332 0 -339 0 -339 -20 0 -20 7 -20 348 -20 l347 0 30 -87 c19 -56 35
-88 44 -88 8 0 32 29 52 65 46 78 80 110 120 110 18 0 39 9 54 25 25 24 25 26
25 215 0 189 0 191 -25 215 -21 22 -33 25 -99 25 l-76 0 -2 308 -3 307 -433 3
c-353 2 -433 0 -438 -11z m872 -972 c70 -25 129 -47 132 -49 2 -2 -22 -18 -52
-35 -42 -25 -62 -45 -87 -87 -17 -30 -33 -54 -35 -52 -4 4 -94 257 -94 264 0
7 4 6 136 -41z"/>
<path d="M300 990 l0 -191 138 3 137 3 3 188 2 187 -140 0 -140 0 0 -190z"/>
<path d="M632 1123 l3 -58 173 -3 172 -2 0 60 0 60 -175 0 -176 0 3 -57z"/>
<path d="M207 1004 c-4 -4 -7 -83 -7 -176 l0 -168 -75 0 c-67 0 -79 -3 -100
-25 -25 -24 -25 -25 -25 -219 l0 -195 27 -21 c23 -18 38 -20 102 -18 60 2 76
6 76 18 0 12 -18 16 -80 20 l-80 5 -3 193 c-1 105 -1 193 0 194 2 1 206 5 453
8 391 4 450 7 450 20 0 13 -47 15 -352 18 l-353 2 -2 172 c-3 161 -9 194 -31
172z"/>
<path d="M635 1000 c-16 -25 13 -30 176 -30 157 0 170 1 167 18 -3 15 -20 17
-170 20 -106 1 -169 -1 -173 -8z"/>
<path d="M635 920 c-16 -25 13 -30 176 -30 157 0 170 1 167 18 -3 15 -20 17
-170 20 -106 1 -169 -1 -173 -8z"/>
<path d="M635 830 c-16 -25 13 -30 176 -30 157 0 170 1 167 18 -3 15 -20 17
-170 20 -106 1 -169 -1 -173 -8z"/>
<path d="M313 743 c-7 -2 -13 -11 -13 -19 0 -10 15 -14 58 -14 64 0 78 6 61
27 -11 13 -80 17 -106 6z"/>
<path d="M493 743 c-7 -2 -13 -11 -13 -19 0 -12 41 -14 250 -14 207 0 250 2
250 14 0 8 -7 17 -16 20 -19 7 -453 7 -471 -1z"/>
<path d="M165 520 c-62 -25 -57 -81 10 -110 46 -20 59 -45 28 -57 -9 -4 -30 1
-46 11 -38 21 -60 6 -33 -23 53 -59 148 -19 134 56 -2 10 -24 28 -50 41 -27
12 -48 26 -48 31 0 15 31 21 52 10 22 -12 48 -6 48 11 0 9 -61 42 -72 39 -2 0
-12 -4 -23 -9z"/>
<path d="M306 523 c-3 -4 -6 -42 -6 -85 0 -64 3 -81 20 -98 29 -29 63 -34 99
-16 37 20 43 40 39 131 -2 54 -6 70 -18 70 -12 0 -16 -17 -18 -78 -3 -71 -5
-79 -27 -89 -41 -19 -55 3 -55 87 0 53 -4 74 -14 78 -8 3 -17 3 -20 0z"/>
<path d="M504 517 c-3 -8 -3 -56 -2 -108 l3 -94 42 -3 c74 -5 115 38 91 96 -6
15 -10 33 -9 41 5 29 -9 58 -34 69 -35 16 -84 15 -91 -1z m84 -49 c3 -13 -3
-18 -22 -18 -20 0 -26 5 -26 21 0 15 5 20 22 17 13 -2 24 -11 26 -20z m7 -72
c16 -12 17 -16 6 -30 -7 -9 -24 -16 -37 -16 -20 0 -24 5 -24 30 0 34 22 40 55
16z"/>
</g>
</svg>
